<svg xmlns="http://www.w3.org/2000/svg" width="1400" height="560" viewBox="0 0 1400 560"><defs><linearGradient id="g" x2="1" y2="1"><stop stop-color="#10243B"/><stop offset="1" stop-color="#287FB6"/></linearGradient></defs><rect width="1400" height="560" rx="28" fill="url(#g)"/><circle cx="1220" cy="120" r="240" fill="#6EE7D2" opacity=".13"/><g font-family="Arial,sans-serif"><text x="82" y="120" fill="#6EE7D2" font-size="18" font-weight="700" letter-spacing="4">PRIVATE CLIENT CASE STUDY</text><text x="82" y="215" fill="#fff" font-size="62" font-weight="800">AutoLane</text><text x="82" y="282" fill="#fff" font-size="62" font-weight="800">Garage Marketplace</text><text x="82" y="344" fill="#D6E7F3" font-size="24">Location-aware listings, payments, and owner operations.</text><rect x="82" y="400" width="112" height="42" rx="21" fill="#fff" opacity=".13"/><text x="138" y="427" fill="#fff" text-anchor="middle" font-size="15">React 18</text><rect x="208" y="400" width="120" height="42" rx="21" fill="#fff" opacity=".13"/><text x="268" y="427" fill="#fff" text-anchor="middle" font-size="15">Mapbox</text><rect x="344" y="400" width="100" height="42" rx="21" fill="#fff" opacity=".13"/><text x="394" y="427" fill="#fff" text-anchor="middle" font-size="15">Stripe</text><g transform="translate(800 78)"><rect width="490" height="360" rx="20" fill="#F8FBFF"/><rect width="490" height="58" rx="20" fill="#fff"/><rect x="28" y="92" width="434" height="48" rx="12" fill="#E8F1FB"/><circle cx="52" cy="116" r="8" fill="#287FB6"/><rect x="76" y="110" width="200" height="11" rx="5" fill="#A5B8CC"/><rect x="28" y="168" width="205" height="145" rx="16" fill="#DCEFF4"/><rect x="257" y="168" width="205" height="145" rx="16" fill="#E8F1FB"/><path d="M56 255c46-55 72-17 107-50 29-26 38 26 73 0" fill="none" stroke="#287FB6" stroke-width="7" stroke-linecap="round"/><rect x="28" y="335" width="180" height="10" rx="5" fill="#A5B8CC"/><rect x="257" y="335" width="140" height="10" rx="5" fill="#A5B8CC"/></g></g></svg>
